<?xml version="1.0" standalone="no"?>
<!DOCTYPE svg PUBLIC "-//W3C//DTD SVG 20010904//EN"
 "http://www.w3.org/TR/2001/REC-SVG-20010904/DTD/svg10.dtd">
<svg version="1.0" xmlns="http://www.w3.org/2000/svg"
 width="200.000000pt" height="200.000000pt" viewBox="0 0 200.000000 200.000000"
 preserveAspectRatio="xMidYMid meet">

<g transform="translate(0.000000,200.000000) scale(0.100000,-0.100000)"
fill="#000000" stroke="none">
<path d="M0 1000 l0 -1000 1000 0 1000 0 0 1000 0 1000 -1000 0 -1000 0 0
-1000z m1691 701 c19 -20 29 -40 29 -60 0 -33 -19 -81 -32 -81 -4 0 -8 -15 -8
-32 0 -49 -27 -155 -56 -225 l-25 -61 21 -69 c70 -223 9 -475 -154 -638 -158
-158 -383 -227 -586 -179 -102 23 -134 22 -209 -10 -41 -18 -89 -30 -137 -33
-41 -3 -74 -9 -74 -13 0 -13 -66 -40 -97 -40 -60 0 -123 64 -123 124 0 38 29
91 60 109 22 14 30 28 40 79 6 34 23 91 37 126 l26 63 -18 76 c-25 104 -17
261 18 355 97 264 329 428 606 428 53 0 114 -5 135 -11 36 -10 46 -8 117 26
95 44 167 65 234 65 28 0 59 7 69 15 34 26 94 19 127 -14z"/>
<path d="M1592 1688 c-43 -21 -41 -84 4 -109 22 -11 29 -11 52 2 37 20 43 80
10 103 -26 18 -34 19 -66 4z"/>
<path d="M1430 1649 c-50 -9 -180 -59 -180 -68 0 -3 27 -19 61 -36 72 -35 172
-123 220 -194 19 -28 37 -51 41 -51 10 0 48 122 55 177 5 50 5 51 -24 57 -39
9 -71 39 -79 74 -13 59 -9 57 -94 41z"/>
<path d="M875 1563 c-215 -46 -404 -238 -450 -458 -52 -248 56 -502 269 -629
33 -20 67 -36 75 -36 8 0 43 18 78 41 l62 41 -16 32 c-21 39 -21 122 0 163 50
96 173 129 267 71 l35 -21 59 64 c85 93 188 227 246 325 l51 84 -36 60 c-20
32 -66 86 -102 120 -147 134 -340 186 -538 143z"/>
<path d="M1540 1137 c-54 -97 -156 -232 -262 -344 -54 -57 -58 -64 -47 -85 20
-37 15 -118 -9 -165 -44 -84 -170 -121 -249 -73 l-33 20 -61 -39 -62 -39 59
-13 c71 -15 200 -15 269 0 89 21 206 86 276 154 121 118 182 261 183 422 0 85
-17 190 -33 200 -4 2 -18 -15 -31 -38z"/>
<path d="M982 750 c-42 -26 -66 -80 -59 -136 18 -165 259 -162 275 4 5 59 -15
105 -61 132 -42 26 -112 26 -155 0z"/>
<path d="M420 680 c-18 -33 -40 -112 -40 -142 0 -21 5 -28 19 -28 46 0 110
-87 95 -132 -6 -20 -4 -21 47 -15 30 3 80 15 112 27 l59 22 -64 43 c-79 54
-137 114 -182 188 -32 55 -35 57 -46 37z"/>
<path d="M322 463 c-17 -6 -42 -57 -42 -83 0 -33 53 -80 90 -80 71 0 109 99
57 148 -22 21 -73 28 -105 15z"/>
</g>
</svg>
